# xmcd CD database file
#
# Track frame offsets:
#	150
#	41143
#	75568
#	94685
#	114163
#	152125
#	188520
#	210015
#	233378
#	267700
#	302170
#	326498
#
# Disc length: 4739 seconds
#
# Revision: 7
# Processed by: cddbd v1.5.2PL0 Copyright (c) Steve Scherf et al.
# Submitted via: CDex 1.70beta3
#
DISCID=8b12810c
DTITLE=カールベーム指揮ベルリン・フィルハーモニー管弦楽団 CD2 - モーツァルト- 後期6大交響曲集＜３５－４１＞
DYEAR=1995
DGENRE=Classical
TTITLE0=第39番 変ホ長調 K.543 第1楽章-Adagio-Allegro
TTITLE1=第39番 変ホ長調 K.543 第2楽章-Andante con moto
TTITLE2=第39番 変ホ長調 K.543 第3楽章-Menuetto.Allegretto
TTITLE3=第39番 変ホ長調 K.543 第4楽章-Finale.Allegro
TTITLE4=第40番 ト短調 K.550 第1楽章-Molto allegro
TTITLE5=第40番 ト短調 K.550 第2楽章-Andante
TTITLE6=第40番 ト短調 K.550 第3楽章-Menuetto.Allegretto
TTITLE7=第40番 ト短調 K.550 第4楽章-Allegro assai-Allegro assai
TTITLE8=第41番 ハ長調 K.551≪ジュピター≫ 第1楽章-Allegro vivace
TTITLE9=第41番 ハ長調 K.551≪ジュピター≫ 第2楽章-Andante cantabile
TTITLE10=第41番 ハ長調 K.551≪ジュピター≫ 第3楽章-Menuetto.Allegretto
TTITLE11=第41番 ハ長調 K.551≪ジュピター≫ 第4楽章-Molto allegro
EXTD=YEAR: 1995
EXTT0=
EXTT1=
EXTT2=
EXTT3=
EXTT4=
EXTT5=
EXTT6=
EXTT7=
EXTT8=
EXTT9=
EXTT10=
EXTT11=
PLAYORDER=
